inDegrees=yes
name=ik_S47_A07_T02
DataType=double
version=3
OpenSimVersion=4.3-2021-08-27-4bc7ad9
endheader
time	pelvis_tilt	pelvis_list	pelvis_rotation	pelvis_tx	pelvis_ty	pelvis_tz	hip_flexion_r	hip_adduction_r	hip_rotation_r	knee_angle_r	knee_angle_r_beta	ankle_angle_r	subtalar_angle_r	mtp_angle_r	hip_flexion_l	hip_adduction_l	hip_rotation_l	knee_angle_l	knee_angle_l_beta	ankle_angle_l	subtalar_angle_l	mtp_angle_l	lumbar_extension	lumbar_bending	lumbar_rotation	arm_flex_r	arm_add_r	arm_rot_r	elbow_flex_r	pro_sup_r	wrist_flex_r	wrist_dev_r	arm_flex_l	arm_add_l	arm_rot_l	elbow_flex_l	pro_sup_l	wrist_flex_l	wrist_dev_l
11.53999999999984	-14.10953868543106	-6.188592606762084	25.66877363349426	0	0.9399999999999999	0	39.02286980296435	-10.70559048622529	-10.10524845186728	51.88484102553387	0.9055613077693973	0	0	0	39.02286980296435	-10.70559048622529	-10.10524845186728	51.88484102553387	0.9055613077693973	0	0	0	-14.20407564956443	-2.438328175987871	3.213294114316595	88.05383177899135	10.85659109927476	21.17052043504987	73.77481117526987	85.55062472980298	0	0	41.77631550613226	-3.284654637342438	18.9804286461484	33.41131712425683	91.312249242877	0	0
11.55999999999984	-14.11383593749905	-6.200264758040427	25.54412268917749	0	0.9399999999999999	0	39.02590189670944	-10.7043676981346	-10.10513084118742	51.88591132915703	0.9055799880916174	0	0	0	39.02590189670944	-10.7043676981346	-10.10513084118742	51.88591132915703	0.9055799880916174	0	0	0	-14.19789869426371	-2.476805623805131	3.343180126518046	88.30096782411353	10.80354514948057	20.72190955507861	69.6984924046337	83.31186871228327	0	0	41.77780227088279	-3.258965976327217	18.9448386360617	33.44493491678949	91.28702833160733	0	0
11.57999999999984	-14.12398183469966	-6.23968069317643	25.54971153951201	0	0.9399999999999999	0	39.02862813925828	-10.70326378585598	-10.10502479254222	51.88686912279445	0.9055967047441451	0	0	0	39.02862813925828	-10.70326378585598	-10.10502479254222	51.88686912279445	0.9055967047441451	0	0	0	-14.22136096229652	-2.513042393877547	3.362702867259646	88.36195905025582	10.73776182433513	20.45690712273587	68.84142793278554	82.78836088742761	0	0	41.84898606371002	-3.22835555006257	18.88951208753473	33.40378769313333	91.41732749985475	0	0
11.59999999999984	-14.13760149950132	-6.26808053344863	25.49609844470571	0	0.9399999999999999	0	39.03139096719536	-10.70214776751887	-10.1049174709259	51.88784105698704	0.9056136681959184	0	0	0	39.03139096719536	-10.70214776751887	-10.1049174709259	51.88784105698704	0.9056136681959184	0	0	0	-14.23941681115374	-2.545941509638277	3.414173151216292	88.40780869641068	10.64414019235757	20.28138862680777	66.98677510370393	81.82784067636683	0	0	41.87938378188596	-3.247605293842229	18.82033877383541	33.42347212665874	91.41556559212546	0	0
11.61999999999984	-14.1557722941328	-6.291364190144423	25.44600943946352	0	0.9399999999999999	0	39.03432611313823	-10.70095761103519	-10.10480314500666	51.88886878855711	0.9056316054956429	0	0	0	39.03432611313823	-10.70095761103519	-10.10480314500666	51.88886878855711	0.9056316054956429	0	0	0	-14.25904081542933	-2.574419994105571	3.471066274399382	88.34106452162069	10.56033152548704	20.12182637947807	65.29483090866981	81.31050467830859	0	0	41.92128796578294	-3.248362338285773	18.78076180841187	33.49708364883297	91.35500301752481	0	0
11.63999999999984	-14.16341262176657	-6.307051252510166	25.36161362818895	0	0.9399999999999999	0	39.03762436941948	-10.69962986908272	-10.1046752611491	51.8900305166672	0.9056518814761769	0	0	0	39.03762436941948	-10.69962986908272	-10.1046752611491	51.8900305166672	0.9056518814761769	0	0	0	-14.26293501480952	-2.60818316133043	3.548968146406837	88.41342344916673	10.49062379182086	20.13242023968407	63.38563087334336	80.5919606371082	0	0	41.92820075095111	-3.257353876036519	18.76150729093181	33.50756034429823	91.36301170736637	0	0
11.65999999999984	-14.16829213716878	-6.315917451423982	25.30339225835357	0	0.9399999999999999	0	39.04054973944357	-10.69844616961615	-10.10456142680731	51.89105478201177	0.9056697582788538	0	0	0	39.04054973944357	-10.69844616961615	-10.10456142680731	51.89105478201177	0.9056697582788538	0	0	0	-14.26550574106512	-2.625673436516923	3.596422196948704	88.25602568044002	10.4729955385322	20.00400914105753	61.67853809406661	79.80691344480326	0	0	41.94236272330798	-3.270489627960672	18.76688899543809	33.51961784825455	91.35159649607638	0	0
11.67999999999984	-14.18613182891157	-6.334394396621183	25.23591739611261	0	0.9399999999999999	0	39.04396078297586	-10.69706420714233	-10.10442855327692	51.8922463198243	0.9056905545368443	0	0	0	39.04396078297586	-10.69706420714233	-10.10442855327692	51.8922463198243	0.9056905545368443	0	0	0	-14.28402950980932	-2.645860963194923	3.642103711892624	88.1019943328501	10.42208064832506	19.87453811369664	59.93976171134064	78.89633333622466	0	0	41.96927598215641	-3.268297048791274	18.73720088209389	33.51996876767173	91.36905437050004	0	0
11.69999999999984	-14.20979586543514	-6.356338595043027	25.16418580483979	0	0.9399999999999999	0	39.04603598510242	-10.69622312281525	-10.10434767860936	51.8929702109312	0.9057031888200858	0	0	0	39.04603598510242	-10.69622312281525	-10.10434767860936	51.8929702109312	0.9057031888200858	0	0	0	-14.31356802189867	-2.657372131910423	3.6531520261802	87.91145424867095	10.40839936466397	19.69768946881107	59.24557552828768	78.7325743388097	0	0	41.99769694206721	-3.323184507117676	18.71551144296003	33.54845595297094	91.3619947595494	0	0
11.71999999999984	-14.23610461467396	-6.362902078935382	25.04430714450049	0	0.9399999999999999	0	39.04866191618628	-10.69516230603063	-10.10424554381605	51.89388830786952	0.9057192126345119	0	0	0	39.04866191618628	-10.69516230603063	-10.10424554381605	51.89388830786952	0.9057192126345119	0	0	0	-14.33358130012849	-2.668105676551803	3.715034440222869	87.77166916209094	10.37818049806565	19.54814852996135	57.52007931470211	78.28705398086278	0	0	42.02834182105098	-3.345712415500909	18.69816565102241	33.57699325880871	91.36437008162969	0	0
11.73999999999984	-14.27867109501716	-6.375204737325412	24.90907205432788	0	0.9399999999999999	0	39.0516962088599	-10.69393776650523	-10.10412758437726	51.89494929893594	0.9057377304219553	0	0	0	39.0516962088599	-10.69393776650523	-10.10412758437726	51.89494929893594	0.9057377304219553	0	0	0	-14.36652974629501	-2.6843963598473	3.805355243660439	87.39455372734754	10.26205996023509	19.54990866758388	54.44279464368215	77.0875587551112	0	0	42.07730816752876	-3.378384257599641	18.64097278600777	33.60982118538868	91.37527213455716	0	0
11.75999999999984	-14.30124766265142	-6.376584310087458	24.85526089867693	0	0.9399999999999999	0	39.05392957168565	-10.69303921400139	-10.10404092210989	51.8957318828212	0.905751389087426	0	0	0	39.05392957168565	-10.69303921400139	-10.10404092210989	51.8957318828212	0.905751389087426	0	0	0	-14.38440503048199	-2.681562568269398	3.831795002606961	87.09803304890454	10.2013506652544	19.68475159556985	53.14456734094993	76.3646894983108	0	0	42.08341926146532	-3.391197535013418	18.61850766290907	33.64481837062881	91.36845178219272	0	0
11.77999999999984	-14.34120467260965	-6.391179492831548	24.80823943552986	0	0.9399999999999999	0	39.05647368644266	-10.69201470984425	-10.103942125744	51.89662182099446	0.9057669214386886	0	0	0	39.05647368644266	-10.69201470984425	-10.103942125744	51.89662182099446	0.9057669214386886	0	0	0	-14.42204082675663	-2.688334163990584	3.874111601624946	86.88449649416233	10.12438268599452	19.75490979783115	51.73222571915213	75.94446147631362	0	0	42.13270014561829	-3.40199701843573	18.62871285007845	33.68674834530119	91.37363194726471	0	0
11.79999999999984	-14.37160632394597	-6.404004266330576	24.78528763821375	0	0.9399999999999999	0	39.05815446736283	-10.69133817426809	-10.10387686631085	51.89720962924331	0.9057771806280014	0	0	0	39.05815446736283	-10.69133817426809	-10.10387686631085	51.89720962924331	0.9057771806280014	0	0	0	-14.45485142451197	-2.686670602298226	3.87788175925851	86.68445831761515	10.07145289213444	19.71628968572048	51.29588777476715	75.90302046570082	0	0	42.12511023928528	-3.429026251606373	18.54872849265686	33.74688505685865	91.42598918735378	0	0
11.81999999999984	-14.41375549203067	-6.417200165242466	24.73306561808486	0	0.9399999999999999	0	39.06094952584065	-10.69021365250045	-10.10376835827381	51.89818675443906	0.9057942346798714	0	0	0	39.06094952584065	-10.69021365250045	-10.10376835827381	51.89818675443906	0.9057942346798714	0	0	0	-14.49634349083468	-2.684885595288733	3.899550097411375	86.54385651269851	10.04588716703708	19.78875696456385	49.9703735350186	75.61130574578775	0	0	42.16151385148646	-3.430028025896954	18.47127344261994	33.79950139401456	91.4870861023991	0	0
11.83999999999984	-14.44898515635972	-6.429645860948348	24.6901070323187	0	0.9399999999999999	0	39.06368156817837	-10.68911632778902	-10.10366239470417	51.89914253249959	0.905810916153946	0	0	0	39.06368156817837	-10.68911632778902	-10.10366239470417	51.89914253249959	0.905810916153946	0	0	0	-14.53000911470936	-2.688740263628361	3.9305388930732	86.37098281453859	9.995229730489378	19.9234465734249	48.71111787455472	75.21234052489959	0	0	42.22833059327302	-3.417264165755766	18.46415393500142	33.79640491056583	91.49512523693437	0	0
11.85999999999984	-14.46387344120778	-6.432364345651339	24.65814286011074	0	0.9399999999999999	0	39.06576655907008	-10.68829149261333	-10.1035823180651	51.89988198945106	0.905823822112426	0	0	0	39.06576655907008	-10.68829149261333	-10.1035823180651	51.89988198945106	0.905823822112426	0	0	0	-14.54125991728607	-2.690975645540071	3.956291247823266	86.37316999515005	10.00427248067043	20.0168668094267	47.32278420998581	74.87282202983118	0	0	42.1929821771345	-3.422999026199532	18.43748405241618	33.84156214787918	91.50609943051005	0	0
11.87999999999984	-14.52386979292974	-6.461427651356365	24.63195124594931	0	0.9399999999999999	0	39.06861580096436	-10.68714709403456	-10.10347177294041	51.90087715424089	0.9058411910146084	0	0	0	39.06861580096436	-10.68714709403456	-10.10347177294041	51.90087715424089	0.9058411910146084	0	0	0	-14.60562206161669	-2.696943714111963	3.978401832873846	86.2295609220634	9.967194190709476	20.14941508576651	46.27574673286309	74.86265700697116	0	0	42.33695328904663	-3.415296241148681	18.44039817597675	33.82267721781516	91.51470866093921	0	0
11.89999999999984	-14.53181588624949	-6.465316287370079	24.61621324063666	0	0.9399999999999999	0	39.0704103872861	-10.68642969649129	-10.10340235104365	51.90150627086763	0.905852171171124	0	0	0	39.0704103872861	-10.68642969649129	-10.10340235104365	51.90150627086763	0.905852171171124	0	0	0	-14.61183700655876	-2.70199596800561	3.99817404374576	85.88280977179915	9.934449995606512	20.30839763455391	45.41361109460461	74.81527683664724	0	0	42.25141393423674	-3.434238517144955	18.46804756463212	33.89508294933327	91.50477796366897	0	0
11.91999999999983	-14.62349270852099	-6.524554211077985	24.605731015967	0	0.9399999999999999	0	39.07230655788108	-10.68566866700111	-10.10332879863737	51.9021680949187	0.9058637221798841	0	0	0	39.07230655788108	-10.68566866700111	-10.10332879863737	51.9021680949187	0.9058637221798841	0	0	0	-14.72025920322276	-2.71586558637995	3.998788211920356	85.83748197661657	9.904322164743176	20.37558997988233	45.05701451762404	74.71102382396897	0	0	42.43413768865078	-3.445169916880034	18.47428189163583	33.95030033667945	91.50331837359275	0	0
11.93999999999983	-14.65851789762142	-6.541413125556571	24.60384624474113	0	0.9399999999999999	0	39.07454277069829	-10.68477375417817	-10.10324220936472	51.90295025041367	0.9058773733685339	0	0	0	39.07454277069829	-10.68477375417817	-10.10324220936472	51.90295025041367	0.9058773733685339	0	0	0	-14.75880671803882	-2.715604062454055	4.00168163026307	85.57112636791592	9.894655614097609	20.50193610167616	44.24459319591552	74.44980038747944	0	0	42.47670140805381	-3.452273335648913	18.45524223765149	33.98733824397161	91.51240361971033	0	0
11.95999999999983	-14.69524590623707	-6.551359381767559	24.59560434122384	0	0.9399999999999999	0	39.07649585476213	-10.6839952667058	-10.10316677050078	51.90363547245448	0.9058893327492533	0	0	0	39.07649585476213	-10.6839952667058	-10.10316677050078	51.90363547245448	0.9058893327492533	0	0	0	-14.79233469164957	-2.716895015597947	4.031364939200881	85.09058958638961	9.89094879414561	20.61892388454559	42.70253246788503	74.78420891516372	0	0	42.47961318324837	-3.420185964792048	18.41108005351377	34.03526509498127	91.53736282150338	0	0
